<?xml version="1.0" encoding="UTF-8"?>
<svg width="267px" height="78px" viewBox="0 0 267 78" version="1.1" xmlns="http://www.w3.org/2000/svg" xmlns:xlink="http://www.w3.org/1999/xlink">
    <!-- Generator: Sketch 50.2 (55047) - http://www.bohemiancoding.com/sketch -->
    <title>Logo/dark/column</title>
    <desc>Created with Sketch.</desc>
    <defs></defs>
    <g id="Logo/dark/column" stroke="none" stroke-width="1" fill="none" fill-rule="evenodd">
        <path d="M10,4.81690141 L19.3252033,4.81690141 C26.9702279,4.81690141 30.7926829,8.30278204 30.7926829,15.2746479 C30.7926829,18.6972002 29.6795504,21.190133 27.453252,22.7535211 C29.4695223,23.091551 31.055211,24.169005 32.2103659,25.9859155 C33.3655207,27.802826 33.9430894,29.9366075 33.9430894,32.3873239 C33.9430894,35.9788912 32.8194557,38.6936528 30.5721545,40.5316901 C28.3248533,42.3697275 25.374002,43.2887324 21.7195122,43.2887324 L10,43.2887324 L10,4.81690141 Z M16.4898374,38.0915493 L20.0813008,38.0915493 C25.0379652,38.0915493 27.5162602,35.9788944 27.5162602,31.7535211 C27.5162602,27.9506852 24.9119502,26.0492958 19.703252,26.0492958 L16.4898374,26.0492958 L16.4898374,38.0915493 Z M16.4898374,21.3591549 L19.3882114,21.3591549 C23.0006956,21.3591549 24.8069106,19.5000186 24.8069106,15.7816901 C24.8069106,11.8098393 23.0216981,9.82394366 19.4512195,9.82394366 L16.4898374,9.82394366 L16.4898374,21.3591549 Z M43.9613821,20.8521127 C45.5155904,18.5704111 47.9518804,17.4295775 51.2703252,17.4295775 C52.320466,17.4295775 53.286581,17.640843 54.1686992,18.0633803 L53.4126016,23.6408451 C52.4884778,23.0492928 51.4803578,22.7535211 50.3882114,22.7535211 C46.1036371,22.7535211 43.9613821,25.8379973 43.9613821,32.0070423 L43.9613821,43.2887324 L37.8495935,43.2887324 L37.8495935,18.2535211 L43.9613821,18.2535211 L43.9613821,20.8521127 Z M63.9349593,7.73239437 C63.9349593,8.70423021 63.5779168,9.54929218 62.8638211,10.2676056 C62.1497254,10.9859191 61.3096254,11.3450704 60.3434959,11.3450704 C59.3773664,11.3450704 58.5372664,10.9859191 57.8231707,10.2676056 C57.109075,9.54929218 56.7520325,8.70423021 56.7520325,7.73239437 C56.7520325,6.76055852 57.109075,5.91549655 57.8231707,5.1971831 C58.5372664,4.47886965 59.3773664,4.11971831 60.3434959,4.11971831 C61.3096254,4.11971831 62.1497254,4.47886965 62.8638211,5.1971831 C63.5779168,5.91549655 63.9349593,6.76055852 63.9349593,7.73239437 Z M63.4308943,43.2887324 L57.3191057,43.2887324 L57.3191057,18.2535211 L63.4308943,18.2535211 L63.4308943,43.2887324 Z M92.9817073,41.1338028 C92.9817073,49.7113105 89.0122348,54 81.0731707,54 C77.5446978,54 74.5623428,53.038742 72.1260163,51.1161972 C69.6896897,49.1936524 68.4715447,46.6901563 68.4715447,43.6056338 L74.9613821,43.6056338 C74.9613821,44.830992 75.5704546,46.0352054 76.7886179,47.2183099 C78.0067812,48.4014144 79.3719437,48.9929577 80.8841463,48.9929577 C84.8746812,48.9929577 86.8699187,46.5845311 86.8699187,41.7676056 L86.8699187,40.1830986 C85.1476879,42.3802927 82.5328766,43.4788732 79.0254065,43.4788732 C75.5179364,43.4788732 72.7666089,42.2535334 70.7713415,39.8028169 C68.776074,37.3521004 67.7784553,34.3521304 67.7784553,30.8028169 C67.7784553,26.9577273 68.8495828,23.7464918 70.9918699,21.1690141 C73.1341571,18.5915364 75.9169883,17.3028169 79.3404472,17.3028169 C82.763906,17.3028169 85.2737048,18.3802709 86.8699187,20.5352113 L86.8699187,18.1267606 L92.9817073,18.1267606 L92.9817073,41.1338028 Z M87.7520325,30.2323944 C87.7520325,27.9506928 87.1219575,26.112683 85.8617886,24.7183099 C84.6016197,23.3239367 82.9424222,22.6267606 80.8841463,22.6267606 C78.8258705,22.6267606 77.1561717,23.3873163 75.875,24.9084507 C74.5938283,26.4295851 73.953252,28.3521011 73.953252,30.6760563 C73.953252,35.6619968 76.263527,38.1549296 80.8841463,38.1549296 C82.9844278,38.1549296 84.6541266,37.4049371 85.8932927,35.9049296 C87.1324588,34.4049221 87.7520325,32.5140959 87.7520325,30.2323944 Z M137.55061,18.7816901 L142.443089,18.7816901 L148.554878,34.6056338 L155.170732,17.4295775 L157.376016,17.4295775 L164.306911,34.5422535 L170.481707,18.2535211 L177.223577,18.2535211 L165.630081,43.7957746 L162.542683,43.7957746 L156.808943,27.7605634 L150.256098,43.7957746 L147.105691,43.7957746 L137.974408,23.7676056 L132.676829,23.7676056 L132.676829,43.2887324 L126.565041,43.2887324 L126.565041,23.7676056 L123.603659,23.7676056 L123.603659,18.7605634 L126.565041,18.7605634 L126.565041,9.76056338 L132.676829,9.76056338 L132.676829,18.7605634 L137.528455,18.7605634 L137.55061,18.7816901 Z M103.882114,0 L103.882114,20.3450704 C105.478328,18.4013987 108.01963,17.4295775 111.506098,17.4295775 C114.110447,17.4295775 116.189694,18.4436518 117.743902,20.471831 C119.298111,22.5000101 120.075203,25.0140695 120.075203,28.0140845 L120.075203,43.2887324 L114.026423,43.2887324 L114.026423,30.0422535 C114.026423,24.760537 112.40923,22.1197183 109.174797,22.1197183 C105.646324,22.1197183 103.882114,25.0351821 103.882114,30.8661972 L103.882114,43.2887324 L97.7703252,43.2887324 L97.7703252,0 L103.882114,0 Z M203.245935,30.7394366 C203.245935,34.6690337 202.048792,37.8802692 199.654472,40.3732394 C197.260151,42.8662096 194.120277,44.1126761 190.234756,44.1126761 C186.349235,44.1126761 183.188359,42.8662096 180.752033,40.3732394 C178.315706,37.8802692 177.097561,34.679597 177.097561,30.7711268 C177.097561,26.8626565 178.294703,23.6619843 180.689024,21.1690141 C183.083345,18.6760439 186.23372,17.4295775 190.140244,17.4295775 C194.046768,17.4295775 197.207644,18.6654806 199.622967,21.1373239 C202.038291,23.6091673 203.245935,26.8098395 203.245935,30.7394366 Z M183.272358,30.8661972 C183.272358,33.1901525 183.923435,35.0915419 185.22561,36.5704225 C186.527784,38.0493032 188.207984,38.7887324 190.26626,38.7887324 C192.324536,38.7887324 193.973232,37.9964868 195.212398,36.4119718 C196.451564,34.8274569 197.071138,32.947194 197.071138,30.7711268 C197.071138,28.5950595 196.441063,26.7147967 195.180894,25.1302817 C193.920725,23.5457667 192.272029,22.7535211 190.234756,22.7535211 C188.197483,22.7535211 186.527784,23.5140769 185.22561,25.0352113 C183.923435,26.5563456 183.272358,28.4999882 183.272358,30.8661972 Z M231.03252,30.7394366 C231.03252,34.6690337 229.835378,37.8802692 227.441057,40.3732394 C225.046736,42.8662096 221.906862,44.1126761 218.021341,44.1126761 C214.135821,44.1126761 210.974944,42.8662096 208.538618,40.3732394 C206.102291,37.8802692 204.884146,34.679597 204.884146,30.7711268 C204.884146,26.8626565 206.081289,23.6619843 208.47561,21.1690141 C210.869931,18.6760439 214.020306,17.4295775 217.926829,17.4295775 C221.833353,17.4295775 224.994229,18.6654806 227.409553,21.1373239 C229.824877,23.6091673 231.03252,26.8098395 231.03252,30.7394366 Z M211.058943,30.8661972 C211.058943,33.1901525 211.710021,35.0915419 213.012195,36.5704225 C214.31437,38.0493032 215.99457,38.7887324 218.052846,38.7887324 C220.111121,38.7887324 221.759818,37.9964868 222.998984,36.4119718 C224.23815,34.8274569 224.857724,32.947194 224.857724,30.7711268 C224.857724,28.5950595 224.227649,26.7147967 222.96748,25.1302817 C221.707311,23.5457667 220.058615,22.7535211 218.021341,22.7535211 C215.984068,22.7535211 214.31437,23.5140769 213.012195,25.0352113 C211.710021,26.5563456 211.058943,28.4999882 211.058943,30.8661972 Z M251.888211,40.943662 C250.249992,43.0563486 247.666684,44.1126761 244.138211,44.1126761 C240.609738,44.1126761 237.805905,42.7605769 235.726626,40.056338 C233.647347,37.3520992 232.607724,34.1831168 232.607724,30.5492958 C232.607724,26.9154748 233.66835,23.8204353 235.789634,21.2640845 C237.910918,18.7077337 240.630742,17.4295775 243.949187,17.4295775 C247.47766,17.4295775 250.08197,18.4647784 251.762195,20.5352113 L251.888211,0 L258,0 L258,43.2887324 L251.888211,43.2887324 L251.888211,40.943662 Z M252.581301,30.7394366 C252.581301,28.5422425 251.909221,26.6619796 250.565041,25.0985915 C249.22086,23.5352035 247.603668,22.7535211 245.713415,22.7535211 C243.823161,22.7535211 242.195468,23.5246402 240.830285,25.0669014 C239.465102,26.6091626 238.78252,28.5105521 238.78252,30.7711268 C238.78252,33.0317014 239.444099,34.9330909 240.767276,36.4753521 C242.090454,38.0176133 243.760153,38.7887324 245.776423,38.7887324 C247.792693,38.7887324 249.430888,38.0387399 250.691057,36.5387324 C251.951226,35.0387249 252.581301,33.1056456 252.581301,30.7394366 Z" id="Brightwood" fill="#000000"></path>
        <path d="M0,69.184765 L1.5469424,69.184765 C1.71631566,71.1474878 3.55683837,72.4862237 6.10872875,72.4862237 C8.54770363,72.4862237 10.2978939,71.1474878 10.2978939,69.3095624 C10.2978939,67.7779579 9.24777975,66.8703404 6.83138797,66.2576985 L4.81020046,65.7358185 C1.79535651,64.9643436 0.451662015,63.6823339 0.451662015,61.5267423 C0.451662015,58.8833063 2.82288759,57 6.0296879,57 C9.20261355,57 11.5286729,58.8833063 11.6190053,61.4813614 L10.0720629,61.4813614 C9.92527277,59.6320908 8.29928952,58.4068071 5.9845217,58.4068071 C3.72621162,58.4068071 2.05506217,59.6661264 2.05506217,61.4700162 C2.05506217,62.8768233 3.0713017,63.7050243 5.46511038,64.3176661 L7.22659224,64.7714749 C10.5011418,65.5996759 11.878711,66.8589951 11.878711,69.1393841 C11.878711,72.0097245 9.57523471,73.8930308 5.97323014,73.8930308 C2.56318193,73.8930308 0.169373256,71.9983793 0,69.184765 Z M13.9676478,73.6320908 L13.9676478,61.8330632 L15.3790916,61.8330632 L15.3790916,64.0113452 L15.4129663,64.0113452 C15.921086,62.6272285 17.1292819,61.6401945 18.834306,61.6401945 C20.5506217,61.6401945 21.7926922,62.6385737 22.2330627,64.1247974 L22.2669373,64.1247974 C22.8202233,62.6726094 24.1977924,61.6401945 25.9705658,61.6401945 C28.2627506,61.6401945 29.7645268,63.1831442 29.7645268,65.5656402 L29.7645268,73.6320908 L28.2740421,73.6320908 L28.2740421,65.9059968 C28.2740421,64.0794165 27.2578026,62.9789303 25.5527785,62.9789303 C23.8138797,62.9789303 22.6169754,64.3176661 22.6169754,66.2009724 L22.6169754,73.6320908 L21.1151992,73.6320908 L21.1151992,65.7698541 C21.1151992,64.0794165 20.0312104,62.9789303 18.4278102,62.9789303 C16.700203,62.9789303 15.4581325,64.3743922 15.4581325,66.3824959 L15.4581325,73.6320908 L13.9676478,73.6320908 Z M36.0539203,72.5316045 C38.1089825,72.5316045 39.7236742,71.0680713 39.7236742,69.1961102 L39.7236742,67.89141 L36.2458767,68.1296596 C34.3940624,68.2544571 33.3665313,69.0599676 33.3665313,70.3646677 C33.3665313,71.6466775 34.4618117,72.5316045 36.0539203,72.5316045 Z M35.7490485,73.8249595 C33.4342806,73.8249595 31.8534636,72.4294976 31.8534636,70.3646677 C31.8534636,68.3452188 33.3552398,67.1199352 36.0652119,66.9384117 L39.7236742,66.7115073 L39.7236742,65.6904376 C39.7236742,63.9886548 38.6509769,62.9675851 36.8217457,62.9675851 C35.0941385,62.9675851 33.9875666,63.8184765 33.7278609,65.2479741 L32.2825425,65.2479741 C32.4519158,63.1377634 34.179523,61.6401945 36.8556204,61.6401945 C39.5317178,61.6401945 41.2141588,63.1491086 41.2141588,65.554295 L41.2141588,73.6320908 L39.7914235,73.6320908 L39.7914235,71.3857374 L39.7575488,71.3857374 C39.1026389,72.8492707 37.4992388,73.8249595 35.7490485,73.8249595 Z M43.720883,73.6320908 L43.720883,61.8330632 L45.1323268,61.8330632 L45.1323268,63.9319287 L45.1662015,63.9319287 C45.5952804,62.4910859 46.6905608,61.6401945 48.1358792,61.6401945 C48.5310835,61.6401945 48.8811215,61.719611 49.0617863,61.7649919 L49.0617863,63.2398703 C48.86983,63.1491086 48.4520426,63.0696921 47.9439229,63.0696921 C46.2727734,63.0696921 45.2113677,64.3743922 45.2113677,66.280389 L45.2113677,73.6320908 L43.720883,73.6320908 Z M51.4104288,58.8833063 L52.9009135,58.8833063 L52.9009135,61.8330632 L55.2156813,61.8330632 L55.2156813,63.0810373 L52.9009135,63.0810373 L52.9009135,70.6596434 C52.9009135,71.8735818 53.3751586,72.3954619 54.4591474,72.3954619 C54.6172291,72.3954619 55.1818066,72.3727715 55.2721391,72.350081 L55.2721391,73.6320908 C55.1140573,73.6661264 54.4817305,73.7001621 54.1655671,73.7001621 C52.2008374,73.7001621 51.4104288,72.8606159 51.4104288,70.7277147 L51.4104288,63.0810373 L49.6602385,63.0810373 L49.6602385,61.8330632 L51.4104288,61.8330632 L51.4104288,58.8833063 Z M72.0062167,72.2252836 L72.0062167,73.6320908 L62.3067749,73.6320908 L62.3067749,57.26094 L63.8424258,57.26094 L63.8424258,72.2252836 L72.0062167,72.2252836 Z M74.0499873,73.6320908 L74.0499873,61.8330632 L75.540472,61.8330632 L75.540472,73.6320908 L74.0499873,73.6320908 Z M74.7952296,59.4505673 C74.2532352,59.4505673 73.8015732,59.0081037 73.8015732,58.452188 C73.8015732,57.9076175 74.2532352,57.465154 74.7952296,57.465154 C75.3485156,57.465154 75.8001776,57.9076175 75.8001776,58.452188 C75.8001776,59.0081037 75.3485156,59.4505673 74.7952296,59.4505673 Z M82.8573966,72.4181524 C85.1157067,72.4181524 86.640066,70.5235008 86.640066,67.6985413 C86.640066,64.8735818 85.1157067,62.9675851 82.8573966,62.9675851 C80.6442527,62.9675851 79.1650596,64.8395462 79.1650596,67.7098865 C79.1650596,70.5575365 80.6442527,72.4181524 82.8573966,72.4181524 Z M83.0041868,78 C80.4410048,78 78.5101497,76.5818476 78.1826947,74.7212318 L79.7296371,74.7212318 C80.1135499,75.8784441 81.366912,76.7066451 83.0719361,76.7066451 C85.2737884,76.7066451 86.640066,75.4246353 86.640066,73.4959481 L86.640066,71.1247974 L86.6061913,71.1247974 C85.9738645,72.6450567 84.4607968,73.7455429 82.5863994,73.7455429 C79.6167216,73.7455429 77.6294088,71.3517018 77.6294088,67.6985413 C77.6294088,64.0340357 79.6167216,61.6401945 82.620274,61.6401945 C84.4946714,61.6401945 85.9964476,62.7179903 86.6852322,64.3290113 L86.7191068,64.3290113 L86.7191068,61.8330632 L88.1418422,61.8330632 L88.1418422,73.439222 C88.1418422,76.184765 86.1432378,78 83.0041868,78 Z M90.8179396,73.6320908 L90.8179396,57.26094 L92.3197158,57.26094 L92.3197158,64.0113452 L92.3535905,64.0113452 C92.9520426,62.5591572 94.3521949,61.6401945 96.2265922,61.6401945 C98.8010657,61.6401945 100.427049,63.3646677 100.427049,66.0081037 L100.427049,73.6320908 L98.9252728,73.6320908 L98.9252728,66.2576985 C98.9252728,64.2155592 97.7848262,62.9789303 95.7975133,62.9789303 C93.6859934,62.9789303 92.3197158,64.465154 92.3197158,66.6888169 L92.3197158,73.6320908 L90.8179396,73.6320908 Z M103.577392,58.8833063 L105.067876,58.8833063 L105.067876,61.8330632 L107.382644,61.8330632 L107.382644,63.0810373 L105.067876,63.0810373 L105.067876,70.6596434 C105.067876,71.8735818 105.542121,72.3954619 106.62611,72.3954619 C106.784192,72.3954619 107.348769,72.3727715 107.439102,72.350081 L107.439102,73.6320908 C107.28102,73.6661264 106.648693,73.7001621 106.33253,73.7001621 C104.3678,73.7001621 103.577392,72.8606159 103.577392,70.7277147 L103.577392,63.0810373 L101.827201,63.0810373 L101.827201,61.8330632 L103.577392,61.8330632 L103.577392,58.8833063 Z M109.607079,73.6320908 L109.607079,61.8330632 L111.097564,61.8330632 L111.097564,73.6320908 L109.607079,73.6320908 Z M110.352322,59.4505673 C109.810327,59.4505673 109.358665,59.0081037 109.358665,58.452188 C109.358665,57.9076175 109.810327,57.465154 110.352322,57.465154 C110.905608,57.465154 111.35727,57.9076175 111.35727,58.452188 C111.35727,59.0081037 110.905608,59.4505673 110.352322,59.4505673 Z M113.773662,73.6320908 L113.773662,61.8330632 L115.185105,61.8330632 L115.185105,64.0113452 L115.21898,64.0113452 C115.817432,62.5818476 117.195001,61.6401945 119.091982,61.6401945 C121.666455,61.6401945 123.247272,63.3079417 123.247272,65.9854133 L123.247272,73.6320908 L121.756788,73.6320908 L121.756788,66.2236629 C121.756788,64.1588331 120.627633,62.9789303 118.662903,62.9789303 C116.630424,62.9789303 115.264146,64.4538088 115.264146,66.643436 L115.264146,73.6320908 L113.773662,73.6320908 Z M130.406115,72.4181524 C132.664425,72.4181524 134.188785,70.5235008 134.188785,67.6985413 C134.188785,64.8735818 132.664425,62.9675851 130.406115,62.9675851 C128.192971,62.9675851 126.713778,64.8395462 126.713778,67.7098865 C126.713778,70.5575365 128.192971,72.4181524 130.406115,72.4181524 Z M130.552905,78 C127.989723,78 126.058868,76.5818476 125.731413,74.7212318 L127.278356,74.7212318 C127.662268,75.8784441 128.915631,76.7066451 130.620655,76.7066451 C132.822507,76.7066451 134.188785,75.4246353 134.188785,73.4959481 L134.188785,71.1247974 L134.15491,71.1247974 C133.522583,72.6450567 132.009515,73.7455429 130.135118,73.7455429 C127.16544,73.7455429 125.178127,71.3517018 125.178127,67.6985413 C125.178127,64.0340357 127.16544,61.6401945 130.168993,61.6401945 C132.04339,61.6401945 133.545166,62.7179903 134.233951,64.3290113 L134.267825,64.3290113 L134.267825,61.8330632 L135.690561,61.8330632 L135.690561,73.439222 C135.690561,76.184765 133.691956,78 130.552905,78 Z M139.857143,73.7341977 C139.269982,73.7341977 138.795737,73.2690438 138.795737,72.6790924 C138.795737,72.0777958 139.269982,71.6126418 139.857143,71.6126418 C140.444303,71.6126418 140.907257,72.0777958 140.907257,72.6790924 C140.907257,73.2690438 140.444303,73.7341977 139.857143,73.7341977 Z M153.395712,73.6320908 L147.501522,73.6320908 L147.501522,57.26094 L153.361837,57.26094 C156.162142,57.26094 158.059122,58.8833063 158.059122,61.2998379 C158.059122,63.1150729 156.817052,64.6693679 155.078153,64.987034 L155.078153,65.0664506 C157.336463,65.3387358 158.905988,66.8703404 158.905988,69.1393841 C158.905988,71.9303079 156.839635,73.6320908 153.395712,73.6320908 Z M149.037173,58.6337115 L149.037173,64.5332253 L152.58272,64.5332253 C155.05557,64.5332253 156.500888,63.3987034 156.500888,61.4700162 C156.500888,59.6888169 155.20236,58.6337115 153.034382,58.6337115 L149.037173,58.6337115 Z M149.037173,72.2593193 L153.181172,72.2593193 C155.845978,72.2593193 157.325171,71.0907618 157.325171,69.0599676 C157.325171,67.0178282 155.78952,65.8719611 152.977924,65.8719611 L149.037173,65.8719611 L149.037173,72.2593193 Z M165.511545,62.9562399 C163.411317,62.9562399 161.954707,64.5786062 161.8305,66.904376 L169.079675,66.904376 C169.045801,64.5786062 167.634357,62.9562399 165.511545,62.9562399 Z M168.989343,70.2852512 L170.468536,70.2852512 C170.118498,72.3273906 168.210226,73.8249595 165.624461,73.8249595 C162.327328,73.8249595 160.283557,71.5105348 160.283557,67.7666126 C160.283557,64.102107 162.349911,61.6401945 165.534128,61.6401945 C168.650596,61.6401945 170.615326,63.9432739 170.615326,67.4602917 L170.615326,68.095624 L161.819208,68.095624 L161.819208,68.1863857 C161.819208,70.8525122 163.320985,72.5089141 165.658335,72.5089141 C167.431109,72.5089141 168.661888,71.5786062 168.989343,70.2852512 Z M173.257549,58.8833063 L174.748033,58.8833063 L174.748033,61.8330632 L177.062801,61.8330632 L177.062801,63.0810373 L174.748033,63.0810373 L174.748033,70.6596434 C174.748033,71.8735818 175.222279,72.3954619 176.306267,72.3954619 C176.464349,72.3954619 177.028927,72.3727715 177.119259,72.350081 L177.119259,73.6320908 C176.961177,73.6661264 176.328851,73.7001621 176.012687,73.7001621 C174.047957,73.7001621 173.257549,72.8606159 173.257549,70.7277147 L173.257549,63.0810373 L171.507359,63.0810373 L171.507359,61.8330632 L173.257549,61.8330632 L173.257549,58.8833063 Z M179.829231,58.8833063 L181.319716,58.8833063 L181.319716,61.8330632 L183.634484,61.8330632 L183.634484,63.0810373 L181.319716,63.0810373 L181.319716,70.6596434 C181.319716,71.8735818 181.793961,72.3954619 182.87795,72.3954619 C183.036031,72.3954619 183.600609,72.3727715 183.690941,72.350081 L183.690941,73.6320908 C183.53286,73.6661264 182.900533,73.7001621 182.584369,73.7001621 C180.61964,73.7001621 179.829231,72.8606159 179.829231,70.7277147 L179.829231,63.0810373 L178.079041,63.0810373 L178.079041,61.8330632 L179.829231,61.8330632 L179.829231,58.8833063 Z M189.991626,62.9562399 C187.891398,62.9562399 186.434788,64.5786062 186.310581,66.904376 L193.559756,66.904376 C193.525882,64.5786062 192.114438,62.9562399 189.991626,62.9562399 Z M193.469424,70.2852512 L194.948617,70.2852512 C194.598579,72.3273906 192.690307,73.8249595 190.104542,73.8249595 C186.807409,73.8249595 184.763639,71.5105348 184.763639,67.7666126 C184.763639,64.102107 186.829992,61.6401945 190.01421,61.6401945 C193.130677,61.6401945 195.095407,63.9432739 195.095407,67.4602917 L195.095407,68.095624 L186.29929,68.095624 L186.29929,68.1863857 C186.29929,70.8525122 187.801066,72.5089141 190.138417,72.5089141 C191.91119,72.5089141 193.141969,71.5786062 193.469424,70.2852512 Z M197.094012,73.6320908 L197.094012,61.8330632 L198.505455,61.8330632 L198.505455,63.9319287 L198.53933,63.9319287 C198.968409,62.4910859 200.063689,61.6401945 201.509008,61.6401945 C201.904212,61.6401945 202.25425,61.719611 202.434915,61.7649919 L202.434915,63.2398703 C202.242959,63.1491086 201.825171,63.0696921 201.317052,63.0696921 C199.645902,63.0696921 198.584496,64.3743922 198.584496,66.280389 L198.584496,73.6320908 L197.094012,73.6320908 Z M218.706039,72.2252836 L218.706039,73.6320908 L209.006597,73.6320908 L209.006597,57.26094 L210.542248,57.26094 L210.542248,72.2252836 L218.706039,72.2252836 Z M220.74981,73.6320908 L220.74981,61.8330632 L222.240294,61.8330632 L222.240294,73.6320908 L220.74981,73.6320908 Z M221.495052,59.4505673 C220.953058,59.4505673 220.501396,59.0081037 220.501396,58.452188 C220.501396,57.9076175 220.953058,57.465154 221.495052,57.465154 C222.048338,57.465154 222.5,57.9076175 222.5,58.452188 C222.5,59.0081037 222.048338,59.4505673 221.495052,59.4505673 Z M234.130297,61.8330632 L229.771758,73.6320908 L228.17965,73.6320908 L223.80982,61.8330632 L225.390637,61.8330632 L228.958767,72.0551053 L228.992641,72.0551053 L232.572063,61.8330632 L234.130297,61.8330632 Z M235.699822,73.6320908 L235.699822,61.8330632 L237.190307,61.8330632 L237.190307,73.6320908 L235.699822,73.6320908 Z M236.445065,59.4505673 C235.90307,59.4505673 235.451408,59.0081037 235.451408,58.452188 C235.451408,57.9076175 235.90307,57.465154 236.445065,57.465154 C236.998351,57.465154 237.450013,57.9076175 237.450013,58.452188 C237.450013,59.0081037 236.998351,59.4505673 236.445065,59.4505673 Z M239.866404,73.6320908 L239.866404,61.8330632 L241.277848,61.8330632 L241.277848,64.0113452 L241.311723,64.0113452 C241.910175,62.5818476 243.287744,61.6401945 245.184725,61.6401945 C247.759198,61.6401945 249.340015,63.3079417 249.340015,65.9854133 L249.340015,73.6320908 L247.849531,73.6320908 L247.849531,66.2236629 C247.849531,64.1588331 246.720376,62.9789303 244.755646,62.9789303 C242.723167,62.9789303 241.356889,64.4538088 241.356889,66.643436 L241.356889,73.6320908 L239.866404,73.6320908 Z M256.498858,72.4181524 C258.757168,72.4181524 260.281528,70.5235008 260.281528,67.6985413 C260.281528,64.8735818 258.757168,62.9675851 256.498858,62.9675851 C254.285714,62.9675851 252.806521,64.8395462 252.806521,67.7098865 C252.806521,70.5575365 254.285714,72.4181524 256.498858,72.4181524 Z M256.645648,78 C254.082466,78 252.151611,76.5818476 251.824156,74.7212318 L253.371099,74.7212318 C253.755011,75.8784441 255.008374,76.7066451 256.713398,76.7066451 C258.91525,76.7066451 260.281528,75.4246353 260.281528,73.4959481 L260.281528,71.1247974 L260.247653,71.1247974 C259.615326,72.6450567 258.102258,73.7455429 256.227861,73.7455429 C253.258183,73.7455429 251.27087,71.3517018 251.27087,67.6985413 C251.27087,64.0340357 253.258183,61.6401945 256.261736,61.6401945 C258.136133,61.6401945 259.637909,62.7179903 260.326694,64.3290113 L260.360568,64.3290113 L260.360568,61.8330632 L261.783304,61.8330632 L261.783304,73.439222 C261.783304,76.184765 259.784699,78 256.645648,78 Z M265.949886,73.7341977 C265.362725,73.7341977 264.88848,73.2690438 264.88848,72.6790924 C264.88848,72.0777958 265.362725,71.6126418 265.949886,71.6126418 C266.537046,71.6126418 267,72.0777958 267,72.6790924 C267,73.2690438 266.537046,73.7341977 265.949886,73.7341977 Z" id="Smart-Lighting.-Bett" fill="#000000"></path>
    </g>
</svg>