<?xml version="1.0" encoding="UTF-8"?>
<svg width="186px" height="40px" viewBox="0 0 186 40" version="1.1" xmlns="http://www.w3.org/2000/svg" xmlns:xlink="http://www.w3.org/1999/xlink">
    <!-- Generator: Sketch 50.2 (55047) - http://www.bohemiancoding.com/sketch -->
    <title>Logo/dark/none</title>
    <desc>Created with Sketch.</desc>
    <defs></defs>
    <g id="Logo/dark/none" stroke="none" stroke-width="1" fill="none" fill-rule="evenodd">
        <path d="M0,3.56807512 L6.99390244,3.56807512 C12.7276709,3.56807512 15.5945122,6.15020892 15.5945122,11.314554 C15.5945122,13.8497779 14.7596628,15.6963948 13.089939,16.8544601 C14.6021417,17.1048526 15.7914083,17.9029667 16.6577744,19.2488263 C17.5241405,20.5946859 17.9573171,22.1752648 17.9573171,23.9906103 C17.9573171,26.6510305 17.1145918,28.661965 15.4291159,30.0234742 C13.7436399,31.3849833 11.5305015,32.0657277 8.78963415,32.0657277 L0,32.0657277 L0,3.56807512 Z M4.86737805,28.2159624 L7.56097561,28.2159624 C11.2784739,28.2159624 13.1371951,26.6510329 13.1371951,23.5211268 C13.1371951,20.7042113 11.1839626,19.2957746 7.27743902,19.2957746 L4.86737805,19.2957746 L4.86737805,28.2159624 Z M4.86737805,15.8215962 L7.04115854,15.8215962 C9.75052168,15.8215962 11.1051829,14.4444582 11.1051829,11.6901408 C11.1051829,8.74802911 9.76627355,7.27699531 7.08841463,7.27699531 L4.86737805,7.27699531 L4.86737805,15.8215962 Z M25.4710366,15.4460094 C26.6366928,13.7558601 28.4639103,12.9107981 30.9527439,12.9107981 C31.7403495,12.9107981 32.4649357,13.0672911 33.1265244,13.3802817 L32.5594512,17.5117371 C31.8663583,17.0735502 31.1102683,16.8544601 30.2911585,16.8544601 C27.0777278,16.8544601 25.4710366,19.1392573 25.4710366,23.7089202 L25.4710366,32.0657277 L20.8871951,32.0657277 L20.8871951,13.5211268 L25.4710366,13.5211268 L25.4710366,15.4460094 Z M40.4512195,5.72769953 C40.4512195,6.44757793 40.1834376,7.07354977 39.6478659,7.6056338 C39.1122941,8.13771784 38.4822191,8.40375587 37.757622,8.40375587 C37.0330248,8.40375587 36.4029498,8.13771784 35.867378,7.6056338 C35.3318063,7.07354977 35.0640244,6.44757793 35.0640244,5.72769953 C35.0640244,5.00782113 35.3318063,4.3818493 35.867378,3.84976526 C36.4029498,3.31768122 37.0330248,3.05164319 37.757622,3.05164319 C38.4822191,3.05164319 39.1122941,3.31768122 39.6478659,3.84976526 C40.1834376,4.3818493 40.4512195,5.00782113 40.4512195,5.72769953 Z M40.0731707,32.0657277 L35.4893293,32.0657277 L35.4893293,13.5211268 L40.0731707,13.5211268 L40.0731707,32.0657277 Z M62.2362805,30.4694836 C62.2362805,36.823193 59.2591761,40 53.304878,40 C50.6585234,40 48.4217571,39.287957 46.5945122,37.8638498 C44.7672673,36.4397425 43.8536585,34.5853009 43.8536585,32.3004695 L48.7210366,32.3004695 C48.7210366,33.2081423 49.177841,34.1001521 50.0914634,34.9765258 C51.0050859,35.8528995 52.0289577,36.2910798 53.1631098,36.2910798 C56.1560109,36.2910798 57.652439,34.5070601 57.652439,30.9389671 L57.652439,29.7652582 C56.3607659,31.3928094 54.3996575,32.2065728 51.7690549,32.2065728 C49.1384523,32.2065728 47.0749567,31.2989136 45.5785061,29.4835681 C44.0820555,27.6682225 43.3338415,25.4460225 43.3338415,22.8169014 C43.3338415,19.9686869 44.1371871,17.5899939 45.7439024,15.6807512 C47.3506178,13.7715085 49.4377412,12.8169014 52.0053354,12.8169014 C54.5729295,12.8169014 56.4552786,13.6150155 57.652439,15.2112676 L57.652439,13.42723 L62.2362805,13.42723 L62.2362805,30.4694836 Z M58.3140244,22.3943662 C58.3140244,20.7042169 57.8414681,19.3427282 56.8963415,18.3098592 C55.9512148,17.2769901 54.7068167,16.7605634 53.1631098,16.7605634 C51.6194029,16.7605634 50.3671288,17.323938 49.40625,18.4507042 C48.4453712,19.5774704 47.964939,21.0015563 47.964939,22.7230047 C47.964939,26.4162939 49.6976453,28.2629108 53.1631098,28.2629108 C54.7383209,28.2629108 55.9905949,27.7073608 56.9199695,26.5962441 C57.8493441,25.4851275 58.3140244,24.0845155 58.3140244,22.3943662 Z M95.6629575,13.9123631 L99.3323171,13.9123631 L103.916159,25.6338028 L108.878049,12.9107981 L110.532012,12.9107981 L115.730183,25.5868545 L120.36128,13.5211268 L125.417683,13.5211268 L116.722561,32.4413146 L114.407012,32.4413146 L110.106707,20.5633803 L105.192073,32.4413146 L102.829268,32.4413146 L95.9808061,17.6056338 L92.007622,17.6056338 L92.007622,32.0657277 L87.4237805,32.0657277 L87.4237805,17.6056338 L85.2027439,17.6056338 L85.2027439,13.8967136 L87.4237805,13.8967136 L87.4237805,7.23004695 L92.007622,7.23004695 L92.007622,13.8967136 L95.6463415,13.8967136 L95.6629575,13.9123631 Z M70.4115854,0 L70.4115854,15.0704225 C71.6087458,13.6306657 73.5147227,12.9107981 76.1295732,12.9107981 C78.082835,12.9107981 79.6422706,13.6619643 80.8079268,15.1643192 C81.9735831,16.6666742 82.5564024,18.5289404 82.5564024,20.7511737 L82.5564024,32.0657277 L78.0198171,32.0657277 L78.0198171,22.2535211 C78.0198171,18.3411385 76.8069227,16.3849765 74.3810976,16.3849765 C71.7347429,16.3849765 70.4115854,18.5445793 70.4115854,22.8638498 L70.4115854,32.0657277 L65.8277439,32.0657277 L65.8277439,0 L70.4115854,0 Z M144.934451,22.7699531 C144.934451,25.6807657 144.036594,28.0594587 142.240854,29.9061033 C140.445113,31.7527479 138.090208,32.6760563 135.176067,32.6760563 C132.261926,32.6760563 129.891269,31.7527479 128.064024,29.9061033 C126.236779,28.0594587 125.323171,25.6885904 125.323171,22.7934272 C125.323171,19.8982641 126.221028,17.5273958 128.016768,15.6807512 C129.812509,13.8341066 132.17529,12.9107981 135.105183,12.9107981 C138.035076,12.9107981 140.405733,13.8262819 142.217226,15.657277 C144.028718,17.4882721 144.934451,19.8591404 144.934451,22.7699531 Z M129.954268,22.8638498 C129.954268,24.5852981 130.442576,25.9937347 131.419207,27.0892019 C132.395838,28.184669 133.655988,28.7323944 135.199695,28.7323944 C136.743402,28.7323944 137.979924,28.1455458 138.909299,26.971831 C139.838673,25.7981162 140.303354,24.4053289 140.303354,22.7934272 C140.303354,21.1815256 139.830797,19.7887383 138.885671,18.6150235 C137.940544,17.4413087 136.704022,16.8544601 135.176067,16.8544601 C133.648112,16.8544601 132.395838,17.4178347 131.419207,18.5446009 C130.442576,19.6713671 129.954268,21.1111023 129.954268,22.8638498 Z M165.77439,22.7699531 C165.77439,25.6807657 164.876533,28.0594587 163.080793,29.9061033 C161.285052,31.7527479 158.930147,32.6760563 156.016006,32.6760563 C153.101866,32.6760563 150.731208,31.7527479 148.903963,29.9061033 C147.076719,28.0594587 146.16311,25.6885904 146.16311,22.7934272 C146.16311,19.8982641 147.060967,17.5273958 148.856707,15.6807512 C150.652448,13.8341066 153.015229,12.9107981 155.945122,12.9107981 C158.875015,12.9107981 161.245672,13.8262819 163.057165,15.657277 C164.868657,17.4882721 165.77439,19.8591404 165.77439,22.7699531 Z M150.794207,22.8638498 C150.794207,24.5852981 151.282515,25.9937347 152.259146,27.0892019 C153.235777,28.184669 154.495927,28.7323944 156.039634,28.7323944 C157.583341,28.7323944 158.819863,28.1455458 159.749238,26.971831 C160.678612,25.7981162 161.143293,24.4053289 161.143293,22.7934272 C161.143293,21.1815256 160.670736,19.7887383 159.72561,18.6150235 C158.780483,17.4413087 157.543961,16.8544601 156.016006,16.8544601 C154.488051,16.8544601 153.235777,17.4178347 152.259146,18.5446009 C151.282515,19.6713671 150.794207,21.1111023 150.794207,22.8638498 Z M181.416159,30.3286385 C180.187494,31.8935915 178.250013,32.6760563 175.603659,32.6760563 C172.957304,32.6760563 170.854429,31.6745014 169.29497,29.6713615 C167.73551,27.6682216 166.955793,25.3208272 166.955793,22.629108 C166.955793,19.9373887 167.751262,17.6447669 169.342226,15.7511737 C170.933189,13.8575805 172.973057,12.9107981 175.46189,12.9107981 C178.108245,12.9107981 180.061477,13.6776136 181.321646,15.2112676 L181.416159,0 L186,0 L186,32.0657277 L181.416159,32.0657277 L181.416159,30.3286385 Z M181.935976,22.7699531 C181.935976,21.1424019 181.431916,19.7496146 180.42378,18.5915493 C179.415645,17.433484 178.202751,16.8544601 176.785061,16.8544601 C175.367371,16.8544601 174.146601,17.4256594 173.122713,18.5680751 C172.098826,19.7104908 171.58689,21.1189275 171.58689,22.7934272 C171.58689,24.467927 172.083074,25.8763636 173.075457,27.0187793 C174.06784,28.1611951 175.320114,28.7323944 176.832317,28.7323944 C178.34452,28.7323944 179.573166,28.1768444 180.518293,27.0657277 C181.463419,25.954611 181.935976,24.5227005 181.935976,22.7699531 Z" id="Brightwood" fill="#000000"></path>
    </g>
</svg>