<?xml version="1.0" encoding="UTF-8"?>
<svg width="541px" height="44px" viewBox="0 0 541 44" version="1.1" xmlns="http://www.w3.org/2000/svg" xmlns:xlink="http://www.w3.org/1999/xlink">
    <!-- Generator: Sketch 50.2 (55047) - http://www.bohemiancoding.com/sketch -->
    <title>Logo/dark/row</title>
    <desc>Created with Sketch.</desc>
    <defs></defs>
    <g id="Logo/dark/row" stroke="none" stroke-width="1" fill="none" fill-rule="evenodd">
        <path d="M0,4.81690141 L9.32520325,4.81690141 C16.9702279,4.81690141 20.7926829,8.30278204 20.7926829,15.2746479 C20.7926829,18.6972002 19.6795504,21.190133 17.453252,22.7535211 C19.4695223,23.091551 21.055211,24.169005 22.2103659,25.9859155 C23.3655207,27.802826 23.9430894,29.9366075 23.9430894,32.3873239 C23.9430894,35.9788912 22.8194557,38.6936528 20.5721545,40.5316901 C18.3248533,42.3697275 15.374002,43.2887324 11.7195122,43.2887324 L0,43.2887324 L0,4.81690141 Z M6.4898374,38.0915493 L10.0813008,38.0915493 C15.0379652,38.0915493 17.5162602,35.9788944 17.5162602,31.7535211 C17.5162602,27.9506852 14.9119502,26.0492958 9.70325203,26.0492958 L6.4898374,26.0492958 L6.4898374,38.0915493 Z M6.4898374,21.3591549 L9.38821138,21.3591549 C13.0006956,21.3591549 14.8069106,19.5000186 14.8069106,15.7816901 C14.8069106,11.8098393 13.0216981,9.82394366 9.45121951,9.82394366 L6.4898374,9.82394366 L6.4898374,21.3591549 Z M33.9613821,20.8521127 C35.5155904,18.5704111 37.9518804,17.4295775 41.2703252,17.4295775 C42.320466,17.4295775 43.286581,17.640843 44.1686992,18.0633803 L43.4126016,23.6408451 C42.4884778,23.0492928 41.4803578,22.7535211 40.3882114,22.7535211 C36.1036371,22.7535211 33.9613821,25.8379973 33.9613821,32.0070423 L33.9613821,43.2887324 L27.8495935,43.2887324 L27.8495935,18.2535211 L33.9613821,18.2535211 L33.9613821,20.8521127 Z M53.9349593,7.73239437 C53.9349593,8.70423021 53.5779168,9.54929218 52.8638211,10.2676056 C52.1497254,10.9859191 51.3096254,11.3450704 50.3434959,11.3450704 C49.3773664,11.3450704 48.5372664,10.9859191 47.8231707,10.2676056 C47.109075,9.54929218 46.7520325,8.70423021 46.7520325,7.73239437 C46.7520325,6.76055852 47.109075,5.91549655 47.8231707,5.1971831 C48.5372664,4.47886965 49.3773664,4.11971831 50.3434959,4.11971831 C51.3096254,4.11971831 52.1497254,4.47886965 52.8638211,5.1971831 C53.5779168,5.91549655 53.9349593,6.76055852 53.9349593,7.73239437 Z M53.4308943,43.2887324 L47.3191057,43.2887324 L47.3191057,18.2535211 L53.4308943,18.2535211 L53.4308943,43.2887324 Z M82.9817073,41.1338028 C82.9817073,49.7113105 79.0122348,54 71.0731707,54 C67.5446978,54 64.5623428,53.038742 62.1260163,51.1161972 C59.6896897,49.1936524 58.4715447,46.6901563 58.4715447,43.6056338 L64.9613821,43.6056338 C64.9613821,44.830992 65.5704546,46.0352054 66.7886179,47.2183099 C68.0067812,48.4014144 69.3719437,48.9929577 70.8841463,48.9929577 C74.8746812,48.9929577 76.8699187,46.5845311 76.8699187,41.7676056 L76.8699187,40.1830986 C75.1476879,42.3802927 72.5328766,43.4788732 69.0254065,43.4788732 C65.5179364,43.4788732 62.7666089,42.2535334 60.7713415,39.8028169 C58.776074,37.3521004 57.7784553,34.3521304 57.7784553,30.8028169 C57.7784553,26.9577273 58.8495828,23.7464918 60.9918699,21.1690141 C63.1341571,18.5915364 65.9169883,17.3028169 69.3404472,17.3028169 C72.763906,17.3028169 75.2737048,18.3802709 76.8699187,20.5352113 L76.8699187,18.1267606 L82.9817073,18.1267606 L82.9817073,41.1338028 Z M77.7520325,30.2323944 C77.7520325,27.9506928 77.1219575,26.112683 75.8617886,24.7183099 C74.6016197,23.3239367 72.9424222,22.6267606 70.8841463,22.6267606 C68.8258705,22.6267606 67.1561717,23.3873163 65.875,24.9084507 C64.5938283,26.4295851 63.953252,28.3521011 63.953252,30.6760563 C63.953252,35.6619968 66.263527,38.1549296 70.8841463,38.1549296 C72.9844278,38.1549296 74.6541266,37.4049371 75.8932927,35.9049296 C77.1324588,34.4049221 77.7520325,32.5140959 77.7520325,30.2323944 Z M127.55061,18.7816901 L132.443089,18.7816901 L138.554878,34.6056338 L145.170732,17.4295775 L147.376016,17.4295775 L154.306911,34.5422535 L160.481707,18.2535211 L167.223577,18.2535211 L155.630081,43.7957746 L152.542683,43.7957746 L146.808943,27.7605634 L140.256098,43.7957746 L137.105691,43.7957746 L127.974408,23.7676056 L122.676829,23.7676056 L122.676829,43.2887324 L116.565041,43.2887324 L116.565041,23.7676056 L113.603659,23.7676056 L113.603659,18.7605634 L116.565041,18.7605634 L116.565041,9.76056338 L122.676829,9.76056338 L122.676829,18.7605634 L127.528455,18.7605634 L127.55061,18.7816901 Z M93.8821138,0 L93.8821138,20.3450704 C95.4783278,18.4013987 98.0196303,17.4295775 101.506098,17.4295775 C104.110447,17.4295775 106.189694,18.4436518 107.743902,20.471831 C109.298111,22.5000101 110.075203,25.0140695 110.075203,28.0140845 L110.075203,43.2887324 L104.026423,43.2887324 L104.026423,30.0422535 C104.026423,24.760537 102.40923,22.1197183 99.1747967,22.1197183 C95.6463238,22.1197183 93.8821138,25.0351821 93.8821138,30.8661972 L93.8821138,43.2887324 L87.7703252,43.2887324 L87.7703252,0 L93.8821138,0 Z M193.245935,30.7394366 C193.245935,34.6690337 192.048792,37.8802692 189.654472,40.3732394 C187.260151,42.8662096 184.120277,44.1126761 180.234756,44.1126761 C176.349235,44.1126761 173.188359,42.8662096 170.752033,40.3732394 C168.315706,37.8802692 167.097561,34.679597 167.097561,30.7711268 C167.097561,26.8626565 168.294703,23.6619843 170.689024,21.1690141 C173.083345,18.6760439 176.23372,17.4295775 180.140244,17.4295775 C184.046768,17.4295775 187.207644,18.6654806 189.622967,21.1373239 C192.038291,23.6091673 193.245935,26.8098395 193.245935,30.7394366 Z M173.272358,30.8661972 C173.272358,33.1901525 173.923435,35.0915419 175.22561,36.5704225 C176.527784,38.0493032 178.207984,38.7887324 180.26626,38.7887324 C182.324536,38.7887324 183.973232,37.9964868 185.212398,36.4119718 C186.451564,34.8274569 187.071138,32.947194 187.071138,30.7711268 C187.071138,28.5950595 186.441063,26.7147967 185.180894,25.1302817 C183.920725,23.5457667 182.272029,22.7535211 180.234756,22.7535211 C178.197483,22.7535211 176.527784,23.5140769 175.22561,25.0352113 C173.923435,26.5563456 173.272358,28.4999882 173.272358,30.8661972 Z M221.03252,30.7394366 C221.03252,34.6690337 219.835378,37.8802692 217.441057,40.3732394 C215.046736,42.8662096 211.906862,44.1126761 208.021341,44.1126761 C204.135821,44.1126761 200.974944,42.8662096 198.538618,40.3732394 C196.102291,37.8802692 194.884146,34.679597 194.884146,30.7711268 C194.884146,26.8626565 196.081289,23.6619843 198.47561,21.1690141 C200.869931,18.6760439 204.020306,17.4295775 207.926829,17.4295775 C211.833353,17.4295775 214.994229,18.6654806 217.409553,21.1373239 C219.824877,23.6091673 221.03252,26.8098395 221.03252,30.7394366 Z M201.058943,30.8661972 C201.058943,33.1901525 201.710021,35.0915419 203.012195,36.5704225 C204.31437,38.0493032 205.99457,38.7887324 208.052846,38.7887324 C210.111121,38.7887324 211.759818,37.9964868 212.998984,36.4119718 C214.23815,34.8274569 214.857724,32.947194 214.857724,30.7711268 C214.857724,28.5950595 214.227649,26.7147967 212.96748,25.1302817 C211.707311,23.5457667 210.058615,22.7535211 208.021341,22.7535211 C205.984068,22.7535211 204.31437,23.5140769 203.012195,25.0352113 C201.710021,26.5563456 201.058943,28.4999882 201.058943,30.8661972 Z M241.888211,40.943662 C240.249992,43.0563486 237.666684,44.1126761 234.138211,44.1126761 C230.609738,44.1126761 227.805905,42.7605769 225.726626,40.056338 C223.647347,37.3520992 222.607724,34.1831168 222.607724,30.5492958 C222.607724,26.9154748 223.66835,23.8204353 225.789634,21.2640845 C227.910918,18.7077337 230.630742,17.4295775 233.949187,17.4295775 C237.47766,17.4295775 240.08197,18.4647784 241.762195,20.5352113 L241.888211,0 L248,0 L248,43.2887324 L241.888211,43.2887324 L241.888211,40.943662 Z M242.581301,30.7394366 C242.581301,28.5422425 241.909221,26.6619796 240.565041,25.0985915 C239.22086,23.5352035 237.603668,22.7535211 235.713415,22.7535211 C233.823161,22.7535211 232.195468,23.5246402 230.830285,25.0669014 C229.465102,26.6091626 228.78252,28.5105521 228.78252,30.7711268 C228.78252,33.0317014 229.444099,34.9330909 230.767276,36.4753521 C232.090454,38.0176133 233.760153,38.7887324 235.776423,38.7887324 C237.792693,38.7887324 239.430888,38.0387399 240.691057,36.5387324 C241.951226,35.0387249 242.581301,33.1056456 242.581301,30.7394366 Z" id="Brightwood" fill="#000000"></path>
        <path d="M274,39.184765 L275.546942,39.184765 C275.716316,41.1474878 277.556838,42.4862237 280.108729,42.4862237 C282.547704,42.4862237 284.297894,41.1474878 284.297894,39.3095624 C284.297894,37.7779579 283.24778,36.8703404 280.831388,36.2576985 L278.8102,35.7358185 C275.795357,34.9643436 274.451662,33.6823339 274.451662,31.5267423 C274.451662,28.8833063 276.822888,27 280.029688,27 C283.202614,27 285.528673,28.8833063 285.619005,31.4813614 L284.072063,31.4813614 C283.925273,29.6320908 282.29929,28.4068071 279.984522,28.4068071 C277.726212,28.4068071 276.055062,29.6661264 276.055062,31.4700162 C276.055062,32.8768233 277.071302,33.7050243 279.46511,34.3176661 L281.226592,34.7714749 C284.501142,35.5996759 285.878711,36.8589951 285.878711,39.1393841 C285.878711,42.0097245 283.575235,43.8930308 279.97323,43.8930308 C276.563182,43.8930308 274.169373,41.9983793 274,39.184765 Z M287.967648,43.6320908 L287.967648,31.8330632 L289.379092,31.8330632 L289.379092,34.0113452 L289.412966,34.0113452 C289.921086,32.6272285 291.129282,31.6401945 292.834306,31.6401945 C294.550622,31.6401945 295.792692,32.6385737 296.233063,34.1247974 L296.266937,34.1247974 C296.820223,32.6726094 298.197792,31.6401945 299.970566,31.6401945 C302.262751,31.6401945 303.764527,33.1831442 303.764527,35.5656402 L303.764527,43.6320908 L302.274042,43.6320908 L302.274042,35.9059968 C302.274042,34.0794165 301.257803,32.9789303 299.552778,32.9789303 C297.81388,32.9789303 296.616975,34.3176661 296.616975,36.2009724 L296.616975,43.6320908 L295.115199,43.6320908 L295.115199,35.7698541 C295.115199,34.0794165 294.03121,32.9789303 292.42781,32.9789303 C290.700203,32.9789303 289.458132,34.3743922 289.458132,36.3824959 L289.458132,43.6320908 L287.967648,43.6320908 Z M310.05392,42.5316045 C312.108982,42.5316045 313.723674,41.0680713 313.723674,39.1961102 L313.723674,37.89141 L310.245877,38.1296596 C308.394062,38.2544571 307.366531,39.0599676 307.366531,40.3646677 C307.366531,41.6466775 308.461812,42.5316045 310.05392,42.5316045 Z M309.749048,43.8249595 C307.434281,43.8249595 305.853464,42.4294976 305.853464,40.3646677 C305.853464,38.3452188 307.35524,37.1199352 310.065212,36.9384117 L313.723674,36.7115073 L313.723674,35.6904376 C313.723674,33.9886548 312.650977,32.9675851 310.821746,32.9675851 C309.094139,32.9675851 307.987567,33.8184765 307.727861,35.2479741 L306.282543,35.2479741 C306.451916,33.1377634 308.179523,31.6401945 310.85562,31.6401945 C313.531718,31.6401945 315.214159,33.1491086 315.214159,35.554295 L315.214159,43.6320908 L313.791423,43.6320908 L313.791423,41.3857374 L313.757549,41.3857374 C313.102639,42.8492707 311.499239,43.8249595 309.749048,43.8249595 Z M317.720883,43.6320908 L317.720883,31.8330632 L319.132327,31.8330632 L319.132327,33.9319287 L319.166201,33.9319287 C319.59528,32.4910859 320.690561,31.6401945 322.135879,31.6401945 C322.531083,31.6401945 322.881122,31.719611 323.061786,31.7649919 L323.061786,33.2398703 C322.86983,33.1491086 322.452043,33.0696921 321.943923,33.0696921 C320.272773,33.0696921 319.211368,34.3743922 319.211368,36.280389 L319.211368,43.6320908 L317.720883,43.6320908 Z M325.410429,28.8833063 L326.900913,28.8833063 L326.900913,31.8330632 L329.215681,31.8330632 L329.215681,33.0810373 L326.900913,33.0810373 L326.900913,40.6596434 C326.900913,41.8735818 327.375159,42.3954619 328.459147,42.3954619 C328.617229,42.3954619 329.181807,42.3727715 329.272139,42.350081 L329.272139,43.6320908 C329.114057,43.6661264 328.481731,43.7001621 328.165567,43.7001621 C326.200837,43.7001621 325.410429,42.8606159 325.410429,40.7277147 L325.410429,33.0810373 L323.660239,33.0810373 L323.660239,31.8330632 L325.410429,31.8330632 L325.410429,28.8833063 Z M346.006217,42.2252836 L346.006217,43.6320908 L336.306775,43.6320908 L336.306775,27.26094 L337.842426,27.26094 L337.842426,42.2252836 L346.006217,42.2252836 Z M348.049987,43.6320908 L348.049987,31.8330632 L349.540472,31.8330632 L349.540472,43.6320908 L348.049987,43.6320908 Z M348.79523,29.4505673 C348.253235,29.4505673 347.801573,29.0081037 347.801573,28.452188 C347.801573,27.9076175 348.253235,27.465154 348.79523,27.465154 C349.348516,27.465154 349.800178,27.9076175 349.800178,28.452188 C349.800178,29.0081037 349.348516,29.4505673 348.79523,29.4505673 Z M356.857397,42.4181524 C359.115707,42.4181524 360.640066,40.5235008 360.640066,37.6985413 C360.640066,34.8735818 359.115707,32.9675851 356.857397,32.9675851 C354.644253,32.9675851 353.16506,34.8395462 353.16506,37.7098865 C353.16506,40.5575365 354.644253,42.4181524 356.857397,42.4181524 Z M357.004187,48 C354.441005,48 352.51015,46.5818476 352.182695,44.7212318 L353.729637,44.7212318 C354.11355,45.8784441 355.366912,46.7066451 357.071936,46.7066451 C359.273788,46.7066451 360.640066,45.4246353 360.640066,43.4959481 L360.640066,41.1247974 L360.606191,41.1247974 C359.973865,42.6450567 358.460797,43.7455429 356.586399,43.7455429 C353.616722,43.7455429 351.629409,41.3517018 351.629409,37.6985413 C351.629409,34.0340357 353.616722,31.6401945 356.620274,31.6401945 C358.494671,31.6401945 359.996448,32.7179903 360.685232,34.3290113 L360.719107,34.3290113 L360.719107,31.8330632 L362.141842,31.8330632 L362.141842,43.439222 C362.141842,46.184765 360.143238,48 357.004187,48 Z M364.81794,43.6320908 L364.81794,27.26094 L366.319716,27.26094 L366.319716,34.0113452 L366.35359,34.0113452 C366.952043,32.5591572 368.352195,31.6401945 370.226592,31.6401945 C372.801066,31.6401945 374.427049,33.3646677 374.427049,36.0081037 L374.427049,43.6320908 L372.925273,43.6320908 L372.925273,36.2576985 C372.925273,34.2155592 371.784826,32.9789303 369.797513,32.9789303 C367.685993,32.9789303 366.319716,34.465154 366.319716,36.6888169 L366.319716,43.6320908 L364.81794,43.6320908 Z M377.577392,28.8833063 L379.067876,28.8833063 L379.067876,31.8330632 L381.382644,31.8330632 L381.382644,33.0810373 L379.067876,33.0810373 L379.067876,40.6596434 C379.067876,41.8735818 379.542121,42.3954619 380.62611,42.3954619 C380.784192,42.3954619 381.348769,42.3727715 381.439102,42.350081 L381.439102,43.6320908 C381.28102,43.6661264 380.648693,43.7001621 380.33253,43.7001621 C378.3678,43.7001621 377.577392,42.8606159 377.577392,40.7277147 L377.577392,33.0810373 L375.827201,33.0810373 L375.827201,31.8330632 L377.577392,31.8330632 L377.577392,28.8833063 Z M383.607079,43.6320908 L383.607079,31.8330632 L385.097564,31.8330632 L385.097564,43.6320908 L383.607079,43.6320908 Z M384.352322,29.4505673 C383.810327,29.4505673 383.358665,29.0081037 383.358665,28.452188 C383.358665,27.9076175 383.810327,27.465154 384.352322,27.465154 C384.905608,27.465154 385.35727,27.9076175 385.35727,28.452188 C385.35727,29.0081037 384.905608,29.4505673 384.352322,29.4505673 Z M387.773662,43.6320908 L387.773662,31.8330632 L389.185105,31.8330632 L389.185105,34.0113452 L389.21898,34.0113452 C389.817432,32.5818476 391.195001,31.6401945 393.091982,31.6401945 C395.666455,31.6401945 397.247272,33.3079417 397.247272,35.9854133 L397.247272,43.6320908 L395.756788,43.6320908 L395.756788,36.2236629 C395.756788,34.1588331 394.627633,32.9789303 392.662903,32.9789303 C390.630424,32.9789303 389.264146,34.4538088 389.264146,36.643436 L389.264146,43.6320908 L387.773662,43.6320908 Z M404.406115,42.4181524 C406.664425,42.4181524 408.188785,40.5235008 408.188785,37.6985413 C408.188785,34.8735818 406.664425,32.9675851 404.406115,32.9675851 C402.192971,32.9675851 400.713778,34.8395462 400.713778,37.7098865 C400.713778,40.5575365 402.192971,42.4181524 404.406115,42.4181524 Z M404.552905,48 C401.989723,48 400.058868,46.5818476 399.731413,44.7212318 L401.278356,44.7212318 C401.662268,45.8784441 402.915631,46.7066451 404.620655,46.7066451 C406.822507,46.7066451 408.188785,45.4246353 408.188785,43.4959481 L408.188785,41.1247974 L408.15491,41.1247974 C407.522583,42.6450567 406.009515,43.7455429 404.135118,43.7455429 C401.16544,43.7455429 399.178127,41.3517018 399.178127,37.6985413 C399.178127,34.0340357 401.16544,31.6401945 404.168993,31.6401945 C406.04339,31.6401945 407.545166,32.7179903 408.233951,34.3290113 L408.267825,34.3290113 L408.267825,31.8330632 L409.690561,31.8330632 L409.690561,43.439222 C409.690561,46.184765 407.691956,48 404.552905,48 Z M413.857143,43.7341977 C413.269982,43.7341977 412.795737,43.2690438 412.795737,42.6790924 C412.795737,42.0777958 413.269982,41.6126418 413.857143,41.6126418 C414.444303,41.6126418 414.907257,42.0777958 414.907257,42.6790924 C414.907257,43.2690438 414.444303,43.7341977 413.857143,43.7341977 Z M427.395712,43.6320908 L421.501522,43.6320908 L421.501522,27.26094 L427.361837,27.26094 C430.162142,27.26094 432.059122,28.8833063 432.059122,31.2998379 C432.059122,33.1150729 430.817052,34.6693679 429.078153,34.987034 L429.078153,35.0664506 C431.336463,35.3387358 432.905988,36.8703404 432.905988,39.1393841 C432.905988,41.9303079 430.839635,43.6320908 427.395712,43.6320908 Z M423.037173,28.6337115 L423.037173,34.5332253 L426.58272,34.5332253 C429.05557,34.5332253 430.500888,33.3987034 430.500888,31.4700162 C430.500888,29.6888169 429.20236,28.6337115 427.034382,28.6337115 L423.037173,28.6337115 Z M423.037173,42.2593193 L427.181172,42.2593193 C429.845978,42.2593193 431.325171,41.0907618 431.325171,39.0599676 C431.325171,37.0178282 429.78952,35.8719611 426.977924,35.8719611 L423.037173,35.8719611 L423.037173,42.2593193 Z M439.511545,32.9562399 C437.411317,32.9562399 435.954707,34.5786062 435.8305,36.904376 L443.079675,36.904376 C443.045801,34.5786062 441.634357,32.9562399 439.511545,32.9562399 Z M442.989343,40.2852512 L444.468536,40.2852512 C444.118498,42.3273906 442.210226,43.8249595 439.624461,43.8249595 C436.327328,43.8249595 434.283557,41.5105348 434.283557,37.7666126 C434.283557,34.102107 436.349911,31.6401945 439.534128,31.6401945 C442.650596,31.6401945 444.615326,33.9432739 444.615326,37.4602917 L444.615326,38.095624 L435.819208,38.095624 L435.819208,38.1863857 C435.819208,40.8525122 437.320985,42.5089141 439.658335,42.5089141 C441.431109,42.5089141 442.661888,41.5786062 442.989343,40.2852512 Z M447.257549,28.8833063 L448.748033,28.8833063 L448.748033,31.8330632 L451.062801,31.8330632 L451.062801,33.0810373 L448.748033,33.0810373 L448.748033,40.6596434 C448.748033,41.8735818 449.222279,42.3954619 450.306267,42.3954619 C450.464349,42.3954619 451.028927,42.3727715 451.119259,42.350081 L451.119259,43.6320908 C450.961177,43.6661264 450.328851,43.7001621 450.012687,43.7001621 C448.047957,43.7001621 447.257549,42.8606159 447.257549,40.7277147 L447.257549,33.0810373 L445.507359,33.0810373 L445.507359,31.8330632 L447.257549,31.8330632 L447.257549,28.8833063 Z M453.829231,28.8833063 L455.319716,28.8833063 L455.319716,31.8330632 L457.634484,31.8330632 L457.634484,33.0810373 L455.319716,33.0810373 L455.319716,40.6596434 C455.319716,41.8735818 455.793961,42.3954619 456.87795,42.3954619 C457.036031,42.3954619 457.600609,42.3727715 457.690941,42.350081 L457.690941,43.6320908 C457.53286,43.6661264 456.900533,43.7001621 456.584369,43.7001621 C454.61964,43.7001621 453.829231,42.8606159 453.829231,40.7277147 L453.829231,33.0810373 L452.079041,33.0810373 L452.079041,31.8330632 L453.829231,31.8330632 L453.829231,28.8833063 Z M463.991626,32.9562399 C461.891398,32.9562399 460.434788,34.5786062 460.310581,36.904376 L467.559756,36.904376 C467.525882,34.5786062 466.114438,32.9562399 463.991626,32.9562399 Z M467.469424,40.2852512 L468.948617,40.2852512 C468.598579,42.3273906 466.690307,43.8249595 464.104542,43.8249595 C460.807409,43.8249595 458.763639,41.5105348 458.763639,37.7666126 C458.763639,34.102107 460.829992,31.6401945 464.01421,31.6401945 C467.130677,31.6401945 469.095407,33.9432739 469.095407,37.4602917 L469.095407,38.095624 L460.29929,38.095624 L460.29929,38.1863857 C460.29929,40.8525122 461.801066,42.5089141 464.138417,42.5089141 C465.91119,42.5089141 467.141969,41.5786062 467.469424,40.2852512 Z M471.094012,43.6320908 L471.094012,31.8330632 L472.505455,31.8330632 L472.505455,33.9319287 L472.53933,33.9319287 C472.968409,32.4910859 474.063689,31.6401945 475.509008,31.6401945 C475.904212,31.6401945 476.25425,31.719611 476.434915,31.7649919 L476.434915,33.2398703 C476.242959,33.1491086 475.825171,33.0696921 475.317052,33.0696921 C473.645902,33.0696921 472.584496,34.3743922 472.584496,36.280389 L472.584496,43.6320908 L471.094012,43.6320908 Z M492.706039,42.2252836 L492.706039,43.6320908 L483.006597,43.6320908 L483.006597,27.26094 L484.542248,27.26094 L484.542248,42.2252836 L492.706039,42.2252836 Z M494.74981,43.6320908 L494.74981,31.8330632 L496.240294,31.8330632 L496.240294,43.6320908 L494.74981,43.6320908 Z M495.495052,29.4505673 C494.953058,29.4505673 494.501396,29.0081037 494.501396,28.452188 C494.501396,27.9076175 494.953058,27.465154 495.495052,27.465154 C496.048338,27.465154 496.5,27.9076175 496.5,28.452188 C496.5,29.0081037 496.048338,29.4505673 495.495052,29.4505673 Z M508.130297,31.8330632 L503.771758,43.6320908 L502.17965,43.6320908 L497.80982,31.8330632 L499.390637,31.8330632 L502.958767,42.0551053 L502.992641,42.0551053 L506.572063,31.8330632 L508.130297,31.8330632 Z M509.699822,43.6320908 L509.699822,31.8330632 L511.190307,31.8330632 L511.190307,43.6320908 L509.699822,43.6320908 Z M510.445065,29.4505673 C509.90307,29.4505673 509.451408,29.0081037 509.451408,28.452188 C509.451408,27.9076175 509.90307,27.465154 510.445065,27.465154 C510.998351,27.465154 511.450013,27.9076175 511.450013,28.452188 C511.450013,29.0081037 510.998351,29.4505673 510.445065,29.4505673 Z M513.866404,43.6320908 L513.866404,31.8330632 L515.277848,31.8330632 L515.277848,34.0113452 L515.311723,34.0113452 C515.910175,32.5818476 517.287744,31.6401945 519.184725,31.6401945 C521.759198,31.6401945 523.340015,33.3079417 523.340015,35.9854133 L523.340015,43.6320908 L521.849531,43.6320908 L521.849531,36.2236629 C521.849531,34.1588331 520.720376,32.9789303 518.755646,32.9789303 C516.723167,32.9789303 515.356889,34.4538088 515.356889,36.643436 L515.356889,43.6320908 L513.866404,43.6320908 Z M530.498858,42.4181524 C532.757168,42.4181524 534.281528,40.5235008 534.281528,37.6985413 C534.281528,34.8735818 532.757168,32.9675851 530.498858,32.9675851 C528.285714,32.9675851 526.806521,34.8395462 526.806521,37.7098865 C526.806521,40.5575365 528.285714,42.4181524 530.498858,42.4181524 Z M530.645648,48 C528.082466,48 526.151611,46.5818476 525.824156,44.7212318 L527.371099,44.7212318 C527.755011,45.8784441 529.008374,46.7066451 530.713398,46.7066451 C532.91525,46.7066451 534.281528,45.4246353 534.281528,43.4959481 L534.281528,41.1247974 L534.247653,41.1247974 C533.615326,42.6450567 532.102258,43.7455429 530.227861,43.7455429 C527.258183,43.7455429 525.27087,41.3517018 525.27087,37.6985413 C525.27087,34.0340357 527.258183,31.6401945 530.261736,31.6401945 C532.136133,31.6401945 533.637909,32.7179903 534.326694,34.3290113 L534.360568,34.3290113 L534.360568,31.8330632 L535.783304,31.8330632 L535.783304,43.439222 C535.783304,46.184765 533.784699,48 530.645648,48 Z M539.949886,43.7341977 C539.362725,43.7341977 538.88848,43.2690438 538.88848,42.6790924 C538.88848,42.0777958 539.362725,41.6126418 539.949886,41.6126418 C540.537046,41.6126418 541,42.0777958 541,42.6790924 C541,43.2690438 540.537046,43.7341977 539.949886,43.7341977 Z" id="Smart-Lighting.-Bett" fill="#000000"></path>
    </g>
</svg>